<?xml version="1.0" encoding="UTF-8" standalone="no"?>
<svg
   xmlns="http://www.w3.org/2000/svg"
   version="1.1"
   viewBox="0 0 210 210">
    <g
       style="stroke-width:0.332184;"
       transform="matrix(3.0103821,0,0,3.0103821,-307.57161,-250.16322)"
       id="g847">
      <path
         id="path849"
         d="m 132.08926,152.69269 c -3.19061,-0.22451 -9.60587,-1.29594 -10.83532,-1.80964 -0.51365,-0.21462 -1.85772,-0.64201 -2.9868,-0.94975 -6.61811,-1.80385 -10.56111,-4.1614 -12.80667,-7.65718 -1.11673,-1.73849 -1.02066,-2.66405 0.43847,-4.22398 2.48572,-2.65743 5.75828,-3.72701 11.40516,-3.72755 3.46767,-2.7e-4 3.32347,-0.0348 9.75807,2.3295 1.60073,0.58815 4.08508,1.49838 5.52077,2.02272 2.9288,1.06964 3.38778,1.28652 3.9836,1.88234 0.52185,0.52185 0.52408,0.76451 0.0117,1.27688 -1.16107,1.16106 -4.46861,1.00397 -7.95059,-0.37761 -2.70445,-1.07308 -3.59648,-1.19895 -4.15138,-0.58579 -0.42843,0.47341 -0.42392,0.53093 0.0845,1.0767 1.03653,1.11259 2.87891,1.80346 9.5128,3.56721 4.89798,1.30222 5.38461,1.37564 8.99583,1.35734 5.21964,-0.0265 7.84497,-0.80076 14.41077,-4.25027 2.29049,-1.20336 4.33717,-1.37226 5.50631,-0.45439 l 0.72463,0.5689 -1.39116,1.25318 c -0.76515,0.68925 -1.76298,1.50481 -2.21741,1.81235 -0.45443,0.30754 -1.58432,1.08901 -2.51085,1.7366 -3.2048,2.23993 -7.46372,3.7828 -12.77524,4.62805 -2.3935,0.38088 -10.19723,0.70241 -12.72725,0.52439 z m 7.01145,-6.91748 c -1.28776,-0.23102 -1.06253,-0.53291 0.92364,-1.23801 2.34481,-0.83243 6.22007,-2.82629 9.36326,-4.8175 2.29221,-1.45212 3.78776,-1.89628 5.28084,-1.56834 1.54575,0.3395 1.51338,0.81398 -0.10023,1.46889 -0.81187,0.32952 -2.86802,1.43048 -4.56922,2.44658 -5.09658,3.04412 -7.05084,3.90518 -8.76762,3.86308 -0.80807,-0.0198 -1.76686,-0.0894 -2.13067,-0.1547 z m 7.27605,-0.64978 c 0.58208,-0.30389 2.35399,-1.31912 3.93757,-2.25606 4.05781,-2.40084 5.48933,-2.98884 7.2765,-2.98884 1.20438,0 1.55444,0.1017 1.8214,0.52916 0.26672,0.42709 0.26424,0.52917 -0.0129,0.52917 -0.18884,0 -1.96051,0.82148 -3.93705,1.82551 -2.11911,1.07645 -4.23189,1.95243 -5.149,2.13482 -0.85541,0.17012 -1.98582,0.4202 -2.51203,0.55574 -0.52621,0.13554 -1.30011,0.24117 -1.71979,0.23473 -0.75084,-0.0115 -0.74612,-0.0205 0.29528,-0.56423 z m -12.29417,-0.45589 c -0.31839,-0.21399 -0.27097,-0.30439 0.26459,-0.50443 0.35887,-0.13404 1.22259,-0.32745 1.91938,-0.42979 1.94189,-0.28523 2.73509,-0.7162 5.81247,-3.15807 3.24901,-2.57805 5.4053,-3.539 6.18705,-2.75725 0.38544,0.38543 0.37466,0.44637 -0.12646,0.71456 -0.3013,0.16125 -1.47605,0.96411 -2.61055,1.78412 -2.93761,2.12331 -7.4664,4.25256 -9.47106,4.45291 -0.89309,0.0893 -1.75719,0.0446 -1.97542,-0.10205 z m -2.3156,-12.90064 c -0.81609,-1.78599 -0.84906,-1.81811 -2.4598,-2.39654 l -1.63262,-0.58628 -1.80619,0.90958 -1.80618,0.90958 -1.42766,-1.17532 c -2.00119,-1.64749 -2.23964,-2.16962 -1.58401,-3.46854 0.91727,-1.81732 0.92738,-2.09338 0.13846,-3.78064 -0.76908,-1.64482 -0.92832,-1.76489 -3.2536,-2.45332 -1.35205,-0.4003 -1.50333,-0.74701 -1.55754,-3.56958 l -0.0313,-1.62998 1.37486,-0.68513 c 0.75618,-0.37682 1.53664,-0.68512 1.73435,-0.68512 0.38573,0 1.65329,-2.61046 1.65329,-3.40486 0,-0.26364 -0.35503,-1.12345 -0.78896,-1.91068 -0.43393,-0.78724 -0.79111,-1.58156 -0.79375,-1.76515 -0.003,-0.18359 0.6965,-1.07073 1.55364,-1.97143 l 1.55844,-1.63763 1.85983,0.72968 1.85984,0.72968 1.53486,-0.77612 c 1.51034,-0.76371 1.54354,-0.805 2.07746,-2.5841 0.62473,-2.08168 0.75624,-2.159618 3.70635,-2.196435 l 1.85208,-0.02311 0.74076,1.830135 0.74077,1.83012 1.73427,0.56029 1.73428,0.56028 1.59759,-0.83145 c 1.85983,-0.96794 2.14351,-0.90928 4.03518,0.83441 1.38669,1.2782 1.45553,1.74044 0.5606,3.76404 l -0.6305,1.42568 0.7428,1.59745 c 0.7764,1.66975 1.03777,1.84914 3.37835,2.31875 1.12731,0.22618 1.41778,0.97654 1.31772,3.40404 -0.0843,2.04569 0.0292,1.90687 -2.45765,3.00581 -0.92551,0.40898 -1.1285,0.66595 -1.62185,2.05311 l -0.56393,1.58561 0.90855,1.80774 c 1.02148,2.03244 1.07113,1.82552 -0.94719,3.94695 -0.66806,0.70219 -1.43359,1.25563 -1.7348,1.25419 -0.29652,-0.001 -1.13649,-0.28077 -1.8666,-0.62076 l -1.32749,-0.61817 -1.70988,0.82466 -1.70989,0.82466 -0.43332,1.65724 c -0.23832,0.91148 -0.51839,1.74245 -0.62237,1.84661 -0.10398,0.10416 -1.22653,0.23009 -2.49456,0.27984 l -2.30551,0.0905 z m 5.65792,-7.61719 c 3.2637,-1.49417 5.37997,-4.65893 5.37997,-8.04544 0,-3.69434 -1.72275,-6.46063 -4.99886,-8.02684 -1.49165,-0.71311 -2.05844,-0.83855 -3.86468,-0.85531 -1.80761,-0.0168 -2.33743,0.0888 -3.62861,0.72282 -2.60729,1.28035 -4.79937,4.32438 -5.12807,7.12111 -0.22673,1.92915 0.4419,4.43179 1.6087,6.0213 0.8338,1.13586 1.56683,1.74224 3.63786,3.00932 1.80193,1.10244 4.65425,1.12407 6.99369,0.053 z m 20.11343,9.18038 c -0.32904,-0.57057 -4.67929,-13.93884 -4.67929,-14.37942 0,-0.097 1.27992,0.2374 2.84427,0.74312 1.56435,0.50572 3.01514,0.93816 3.22398,0.96097 0.96072,0.10494 1.42607,-6.85633 0.6917,-10.34738 -1.79713,-8.54328 -8.66398,-16.230771 -17.21099,-19.267851 -1.06477,-0.378351 -2.43914,-0.491433 -7.04302,-0.579496 l -5.72011,-0.109413 -0.45509,-2.773186 c -0.2503,-1.525252 -0.37535,-2.853273 -0.27788,-2.951157 0.0975,-0.09788 1.86427,-0.217297 3.92624,-0.265362 6.8371,-0.159375 12.45638,1.099673 17.24277,3.86339 2.83053,1.634377 4.05588,2.609955 6.87917,5.476907 4.3889,4.456783 6.41146,8.039478 8.07005,14.295018 0.46332,1.74749 0.60997,6.17094 0.30262,9.12813 -0.1588,1.52797 -0.36228,3.4925 -0.45216,4.36562 l -0.16342,1.5875 3.46274,1.44289 c 1.97199,0.8217 3.36332,1.5423 3.23182,1.6738 -0.21065,0.21065 -2.101,1.29632 -10.0662,5.78125 -2.61609,1.47304 -3.54776,1.80454 -3.8072,1.35467 z m -52.45233,-3.62493 c -0.63048,-0.96223 -1.6882,-4.2545 -1.76727,-5.5008 l -0.0691,-1.08867 2.69842,-0.58122 2.69842,-0.58123 0.43842,1.22358 c 0.24113,0.67297 0.70937,1.99749 1.04053,2.94337 l 0.60211,1.71979 -2.41603,1.25452 c -1.32882,0.68999 -2.50259,1.25554 -2.60837,1.25678 -0.10579,10e-4 -0.38351,-0.28952 -0.61716,-0.64612 z m -2.87958,-12.4889 c -0.14232,-1.46432 0.18133,-5.5359 0.46239,-5.81695 0.12778,-0.12778 5.34246,0.75129 5.53879,0.93371 0.1075,0.0999 0.1192,1.51415 0.026,3.14283 -0.13684,2.39175 -0.25075,2.98402 -0.59231,3.07971 -0.23259,0.0652 -1.51097,0.19809 -2.84085,0.29543 l -2.41795,0.17697 -0.17608,-1.8117 z m 5.14428,-8.87995 c -0.50932,-0.1523 -1.55112,-0.4484 -2.3151,-0.658 -0.84759,-0.23253 -1.38906,-0.52806 -1.38906,-0.75813 0,-1.03218 1.78128,-5.35143 2.58319,-6.26373 0.38448,-0.43741 0.44622,-0.43639 1.22594,0.0202 3.31808,1.94286 3.86378,2.30525 3.86378,2.56589 0,0.16162 -0.45433,1.41638 -1.00963,2.78837 -1.09396,2.70286 -1.24267,2.81872 -2.95912,2.30544 z m 3.77624,-9.919595 -2.17688,-1.736395 0.76397,-0.956632 c 1.30793,-1.637768 3.99825,-4.263924 4.36811,-4.263924 0.39406,0 3.37272,3.56791 3.42295,4.100089 0.0244,0.25851 -3.98904,4.703217 -4.16468,4.612207 -0.0201,-0.0104 -1.01618,-0.800327 -2.21347,-1.755345 z m 8.60207,-6.209123 c -0.49115,-0.775107 -1.15953,-1.846619 -1.48529,-2.381136 l -0.59229,-0.97185 0.86891,-0.650561 c 1.41718,-1.061057 4.87481,-2.565114 5.89686,-2.565114 0.28988,0 1.92488,5.469292 1.68917,5.65048 -0.0994,0.07639 -4.32404,1.882209 -5.09986,2.179916 -0.25702,0.09863 -0.68058,-0.319693 -1.2775,-1.261735 z"
         style="fill:#3CEA62;stroke-width:0.332184" />
    </g>
</svg>
